<mxfile host="app.diagrams.net" agent="Mozilla/5.0 (X11; Ubuntu; Linux x86_64; rv:128.0) Gecko/20100101 Firefox/128.0" version="24.7.6">
  <diagram name="Page-1" id="hj4v6sfoOWS6Fab0JvU0">
    <mxGraphModel dx="1283" dy="715" grid="0" gridSize="10" guides="1" tooltips="1" connect="1" arrows="1" fold="1" page="0" pageScale="1" pageWidth="827" pageHeight="1169" math="0" shadow="0">
      <root>
        <mxCell id="0" />
        <mxCell id="1" parent="0" />
        <mxCell id="pX-jq6CnIiq8ygwYVJcv-52" style="edgeStyle=orthogonalEdgeStyle;rounded=0;orthogonalLoop=1;jettySize=auto;html=1;exitX=1;exitY=0.5;exitDx=0;exitDy=0;entryX=0;entryY=0.5;entryDx=0;entryDy=0;fillColor=#f5f5f5;strokeColor=#000000;" edge="1" parent="1" source="pX-jq6CnIiq8ygwYVJcv-1" target="pX-jq6CnIiq8ygwYVJcv-6">
          <mxGeometry relative="1" as="geometry" />
        </mxCell>
        <mxCell id="pX-jq6CnIiq8ygwYVJcv-53" style="edgeStyle=orthogonalEdgeStyle;rounded=0;orthogonalLoop=1;jettySize=auto;html=1;exitX=1;exitY=0.5;exitDx=0;exitDy=0;entryX=0;entryY=0.5;entryDx=0;entryDy=0;fillColor=#f5f5f5;strokeColor=#000000;" edge="1" parent="1" source="pX-jq6CnIiq8ygwYVJcv-1" target="pX-jq6CnIiq8ygwYVJcv-5">
          <mxGeometry relative="1" as="geometry" />
        </mxCell>
        <mxCell id="pX-jq6CnIiq8ygwYVJcv-54" style="edgeStyle=orthogonalEdgeStyle;rounded=0;orthogonalLoop=1;jettySize=auto;html=1;exitX=1;exitY=0.5;exitDx=0;exitDy=0;entryX=0;entryY=0.5;entryDx=0;entryDy=0;fillColor=#f5f5f5;strokeColor=#000000;" edge="1" parent="1" source="pX-jq6CnIiq8ygwYVJcv-1" target="pX-jq6CnIiq8ygwYVJcv-8">
          <mxGeometry relative="1" as="geometry" />
        </mxCell>
        <mxCell id="pX-jq6CnIiq8ygwYVJcv-55" style="edgeStyle=orthogonalEdgeStyle;rounded=0;orthogonalLoop=1;jettySize=auto;html=1;exitX=1;exitY=0.5;exitDx=0;exitDy=0;entryX=0;entryY=0.5;entryDx=0;entryDy=0;fillColor=#f5f5f5;strokeColor=#000000;" edge="1" parent="1" source="pX-jq6CnIiq8ygwYVJcv-1" target="pX-jq6CnIiq8ygwYVJcv-4">
          <mxGeometry relative="1" as="geometry" />
        </mxCell>
        <mxCell id="pX-jq6CnIiq8ygwYVJcv-56" style="edgeStyle=orthogonalEdgeStyle;rounded=0;orthogonalLoop=1;jettySize=auto;html=1;exitX=1;exitY=0.5;exitDx=0;exitDy=0;entryX=0;entryY=0.5;entryDx=0;entryDy=0;fillColor=#f5f5f5;strokeColor=#000000;" edge="1" parent="1" source="pX-jq6CnIiq8ygwYVJcv-1" target="pX-jq6CnIiq8ygwYVJcv-3">
          <mxGeometry relative="1" as="geometry" />
        </mxCell>
        <mxCell id="pX-jq6CnIiq8ygwYVJcv-57" style="edgeStyle=orthogonalEdgeStyle;rounded=0;orthogonalLoop=1;jettySize=auto;html=1;exitX=1;exitY=0.5;exitDx=0;exitDy=0;entryX=0;entryY=0.5;entryDx=0;entryDy=0;fillColor=#f5f5f5;strokeColor=#000000;" edge="1" parent="1" source="pX-jq6CnIiq8ygwYVJcv-1" target="pX-jq6CnIiq8ygwYVJcv-2">
          <mxGeometry relative="1" as="geometry" />
        </mxCell>
        <mxCell id="pX-jq6CnIiq8ygwYVJcv-58" style="edgeStyle=orthogonalEdgeStyle;rounded=0;orthogonalLoop=1;jettySize=auto;html=1;exitX=1;exitY=0.5;exitDx=0;exitDy=0;entryX=0;entryY=0.5;entryDx=0;entryDy=0;fillColor=#f5f5f5;strokeColor=#000000;" edge="1" parent="1" source="pX-jq6CnIiq8ygwYVJcv-1" target="pX-jq6CnIiq8ygwYVJcv-7">
          <mxGeometry relative="1" as="geometry" />
        </mxCell>
        <mxCell id="pX-jq6CnIiq8ygwYVJcv-59" style="edgeStyle=orthogonalEdgeStyle;rounded=0;orthogonalLoop=1;jettySize=auto;html=1;exitX=1;exitY=0.5;exitDx=0;exitDy=0;entryX=0;entryY=0.5;entryDx=0;entryDy=0;fillColor=#f5f5f5;strokeColor=#000000;" edge="1" parent="1" source="pX-jq6CnIiq8ygwYVJcv-1" target="pX-jq6CnIiq8ygwYVJcv-9">
          <mxGeometry relative="1" as="geometry" />
        </mxCell>
        <mxCell id="pX-jq6CnIiq8ygwYVJcv-60" style="edgeStyle=orthogonalEdgeStyle;rounded=0;orthogonalLoop=1;jettySize=auto;html=1;exitX=1;exitY=0.5;exitDx=0;exitDy=0;entryX=0;entryY=0.5;entryDx=0;entryDy=0;fillColor=#f5f5f5;strokeColor=#000000;" edge="1" parent="1" source="pX-jq6CnIiq8ygwYVJcv-1" target="pX-jq6CnIiq8ygwYVJcv-10">
          <mxGeometry relative="1" as="geometry" />
        </mxCell>
        <mxCell id="pX-jq6CnIiq8ygwYVJcv-61" style="edgeStyle=orthogonalEdgeStyle;rounded=0;orthogonalLoop=1;jettySize=auto;html=1;exitX=1;exitY=0.5;exitDx=0;exitDy=0;entryX=0;entryY=0.5;entryDx=0;entryDy=0;fillColor=#f5f5f5;strokeColor=#000000;" edge="1" parent="1" source="pX-jq6CnIiq8ygwYVJcv-1" target="pX-jq6CnIiq8ygwYVJcv-11">
          <mxGeometry relative="1" as="geometry" />
        </mxCell>
        <mxCell id="pX-jq6CnIiq8ygwYVJcv-1" value="Cassette" style="rounded=0;whiteSpace=wrap;html=1;fillColor=#f5f5f5;fontColor=#333333;strokeColor=#000000;" vertex="1" parent="1">
          <mxGeometry x="40" y="540" width="120" height="40" as="geometry" />
        </mxCell>
        <mxCell id="pX-jq6CnIiq8ygwYVJcv-2" value="&lt;div&gt;Book&lt;/div&gt;" style="rounded=0;whiteSpace=wrap;html=1;fillColor=#ffe6cc;strokeColor=#000000;" vertex="1" parent="1">
          <mxGeometry x="280" y="320" width="120" height="40" as="geometry" />
        </mxCell>
        <mxCell id="pX-jq6CnIiq8ygwYVJcv-3" value="Color" style="rounded=0;whiteSpace=wrap;html=1;fillColor=#ffe6cc;strokeColor=#000000;" vertex="1" parent="1">
          <mxGeometry x="280" y="370" width="120" height="40" as="geometry" />
        </mxCell>
        <mxCell id="pX-jq6CnIiq8ygwYVJcv-4" value="Config" style="rounded=0;whiteSpace=wrap;html=1;fillColor=#fff2cc;strokeColor=#000000;" vertex="1" parent="1">
          <mxGeometry x="280" y="420" width="120" height="40" as="geometry" />
        </mxCell>
        <mxCell id="pX-jq6CnIiq8ygwYVJcv-62" style="edgeStyle=orthogonalEdgeStyle;rounded=0;orthogonalLoop=1;jettySize=auto;html=1;exitX=1;exitY=0.5;exitDx=0;exitDy=0;entryX=0;entryY=0.5;entryDx=0;entryDy=0;fillColor=#f5f5f5;strokeColor=#000000;" edge="1" parent="1" source="pX-jq6CnIiq8ygwYVJcv-5" target="pX-jq6CnIiq8ygwYVJcv-12">
          <mxGeometry relative="1" as="geometry" />
        </mxCell>
        <mxCell id="pX-jq6CnIiq8ygwYVJcv-63" style="edgeStyle=orthogonalEdgeStyle;rounded=0;orthogonalLoop=1;jettySize=auto;html=1;exitX=1;exitY=0.5;exitDx=0;exitDy=0;entryX=0;entryY=0.5;entryDx=0;entryDy=0;fillColor=#f5f5f5;strokeColor=#000000;" edge="1" parent="1" source="pX-jq6CnIiq8ygwYVJcv-5" target="pX-jq6CnIiq8ygwYVJcv-13">
          <mxGeometry relative="1" as="geometry" />
        </mxCell>
        <mxCell id="pX-jq6CnIiq8ygwYVJcv-64" style="edgeStyle=orthogonalEdgeStyle;rounded=0;orthogonalLoop=1;jettySize=auto;html=1;exitX=1;exitY=0.5;exitDx=0;exitDy=0;entryX=0;entryY=0.5;entryDx=0;entryDy=0;fillColor=#f5f5f5;strokeColor=#000000;" edge="1" parent="1" source="pX-jq6CnIiq8ygwYVJcv-5" target="pX-jq6CnIiq8ygwYVJcv-15">
          <mxGeometry relative="1" as="geometry" />
        </mxCell>
        <mxCell id="pX-jq6CnIiq8ygwYVJcv-65" style="edgeStyle=orthogonalEdgeStyle;rounded=0;orthogonalLoop=1;jettySize=auto;html=1;exitX=1;exitY=0.5;exitDx=0;exitDy=0;entryX=0;entryY=0.5;entryDx=0;entryDy=0;fillColor=#f5f5f5;strokeColor=#000000;" edge="1" parent="1" source="pX-jq6CnIiq8ygwYVJcv-5" target="pX-jq6CnIiq8ygwYVJcv-16">
          <mxGeometry relative="1" as="geometry" />
        </mxCell>
        <mxCell id="pX-jq6CnIiq8ygwYVJcv-66" style="edgeStyle=orthogonalEdgeStyle;rounded=0;orthogonalLoop=1;jettySize=auto;html=1;exitX=1;exitY=0.5;exitDx=0;exitDy=0;entryX=0;entryY=0.5;entryDx=0;entryDy=0;fillColor=#f5f5f5;strokeColor=#000000;" edge="1" parent="1" source="pX-jq6CnIiq8ygwYVJcv-5" target="pX-jq6CnIiq8ygwYVJcv-17">
          <mxGeometry relative="1" as="geometry" />
        </mxCell>
        <mxCell id="pX-jq6CnIiq8ygwYVJcv-67" style="edgeStyle=orthogonalEdgeStyle;rounded=0;orthogonalLoop=1;jettySize=auto;html=1;exitX=1;exitY=0.5;exitDx=0;exitDy=0;entryX=0;entryY=0.5;entryDx=0;entryDy=0;fillColor=#f5f5f5;strokeColor=#000000;" edge="1" parent="1" source="pX-jq6CnIiq8ygwYVJcv-5" target="pX-jq6CnIiq8ygwYVJcv-14">
          <mxGeometry relative="1" as="geometry" />
        </mxCell>
        <mxCell id="pX-jq6CnIiq8ygwYVJcv-68" style="edgeStyle=orthogonalEdgeStyle;rounded=0;orthogonalLoop=1;jettySize=auto;html=1;exitX=1;exitY=0.5;exitDx=0;exitDy=0;entryX=0;entryY=0.5;entryDx=0;entryDy=0;fillColor=#f5f5f5;strokeColor=#000000;" edge="1" parent="1" source="pX-jq6CnIiq8ygwYVJcv-5" target="pX-jq6CnIiq8ygwYVJcv-18">
          <mxGeometry relative="1" as="geometry" />
        </mxCell>
        <mxCell id="pX-jq6CnIiq8ygwYVJcv-5" value="Graphics" style="rounded=0;whiteSpace=wrap;html=1;fillColor=#d5e8d4;strokeColor=#000000;" vertex="1" parent="1">
          <mxGeometry x="280" y="520" width="120" height="40" as="geometry" />
        </mxCell>
        <mxCell id="pX-jq6CnIiq8ygwYVJcv-6" value="Inputs" style="rounded=0;whiteSpace=wrap;html=1;fillColor=#ffe6cc;strokeColor=#000000;" vertex="1" parent="1">
          <mxGeometry x="280" y="570" width="120" height="40" as="geometry" />
        </mxCell>
        <mxCell id="pX-jq6CnIiq8ygwYVJcv-7" value="Rand" style="rounded=0;whiteSpace=wrap;html=1;fillColor=#ffe6cc;strokeColor=#000000;" vertex="1" parent="1">
          <mxGeometry x="280" y="620" width="120" height="40" as="geometry" />
        </mxCell>
        <mxCell id="pX-jq6CnIiq8ygwYVJcv-8" value="Dict" style="rounded=0;whiteSpace=wrap;html=1;fillColor=#ffe6cc;strokeColor=#000000;" vertex="1" parent="1">
          <mxGeometry x="280" y="470" width="120" height="40" as="geometry" />
        </mxCell>
        <mxCell id="pX-jq6CnIiq8ygwYVJcv-9" value="Ref" style="rounded=0;whiteSpace=wrap;html=1;fillColor=#ffe6cc;strokeColor=#000000;" vertex="1" parent="1">
          <mxGeometry x="280" y="670" width="120" height="40" as="geometry" />
        </mxCell>
        <mxCell id="pX-jq6CnIiq8ygwYVJcv-10" value="Seg" style="rounded=0;whiteSpace=wrap;html=1;fillColor=#ffe6cc;strokeColor=#000000;" vertex="1" parent="1">
          <mxGeometry x="280" y="720" width="120" height="40" as="geometry" />
        </mxCell>
        <mxCell id="pX-jq6CnIiq8ygwYVJcv-11" value="Str" style="rounded=0;whiteSpace=wrap;html=1;fillColor=#ffe6cc;strokeColor=#000000;" vertex="1" parent="1">
          <mxGeometry x="280" y="770" width="120" height="40" as="geometry" />
        </mxCell>
        <mxCell id="pX-jq6CnIiq8ygwYVJcv-12" value="Event" style="rounded=0;whiteSpace=wrap;html=1;fillColor=#d5e8d4;strokeColor=#000000;" vertex="1" parent="1">
          <mxGeometry x="520" y="500" width="120" height="40" as="geometry" />
        </mxCell>
        <mxCell id="pX-jq6CnIiq8ygwYVJcv-13" value="Grid" style="rounded=0;whiteSpace=wrap;html=1;fillColor=#d5e8d4;strokeColor=#000000;" vertex="1" parent="1">
          <mxGeometry x="520" y="550" width="120" height="40" as="geometry" />
        </mxCell>
        <mxCell id="pX-jq6CnIiq8ygwYVJcv-14" value="Window" style="rounded=0;whiteSpace=wrap;html=1;fillColor=#d5e8d4;strokeColor=#000000;" vertex="1" parent="1">
          <mxGeometry x="520" y="600" width="120" height="40" as="geometry" />
        </mxCell>
        <mxCell id="pX-jq6CnIiq8ygwYVJcv-15" value="Draw" style="rounded=0;whiteSpace=wrap;html=1;fillColor=#d5e8d4;strokeColor=#000000;" vertex="1" parent="1">
          <mxGeometry x="520" y="450" width="120" height="40" as="geometry" />
        </mxCell>
        <mxCell id="pX-jq6CnIiq8ygwYVJcv-16" value="Config" style="rounded=0;whiteSpace=wrap;html=1;fillColor=#d5e8d4;strokeColor=#000000;" vertex="1" parent="1">
          <mxGeometry x="520" y="400" width="120" height="40" as="geometry" />
        </mxCell>
        <mxCell id="pX-jq6CnIiq8ygwYVJcv-17" value="Cell" style="rounded=0;whiteSpace=wrap;html=1;fillColor=#d5e8d4;strokeColor=#000000;" vertex="1" parent="1">
          <mxGeometry x="520" y="350" width="120" height="40" as="geometry" />
        </mxCell>
        <mxCell id="pX-jq6CnIiq8ygwYVJcv-18" value="..." style="rounded=0;whiteSpace=wrap;html=1;strokeColor=#000000;fillColor=#d5e8d4;" vertex="1" parent="1">
          <mxGeometry x="520" y="650" width="120" height="40" as="geometry" />
        </mxCell>
      </root>
    </mxGraphModel>
  </diagram>
</mxfile>
